ISO-10303-21;
HEADER;
/* Generated by software containing ST-Developer
 * from STEP Tools, Inc. (www.steptools.com) 
 */
/* OPTION: using custom schema-name function */

FILE_DESCRIPTION(
/* description */ (''),
/* implementation_level */ '2;1');

FILE_NAME(
/* name */ 'ravioli.stp',
/* time_stamp */ '2026-08-27T23:15:24+02:00',
/* author */ (''),
/* organization */ (''),
/* preprocessor_version */ 'ST-DEVELOPER v20',
/* originating_system */ 'SIEMENS PLM Software NX2406.3002',
/* authorisation */ '');

FILE_SCHEMA (('AUTOMOTIVE_DESIGN { 1 0 10303 214 3 1 1 1 }'));
ENDSEC;

DATA;
#10=SHAPE_REPRESENTATION_RELATIONSHIP('None',
'relationship between ravioli_basic-None and ravioli_basic-None',#22,#11);
#11=ADVANCED_BREP_SHAPE_REPRESENTATION('ravioli_basic-None',(#45,#46),#1498);
#12=SHAPE_DEFINITION_REPRESENTATION(#13,#22);
#13=PRODUCT_DEFINITION_SHAPE('','',#14);
#14=PRODUCT_DEFINITION(' ','',#16,#15);
#15=PRODUCT_DEFINITION_CONTEXT('part definition',#21,'design');
#16=PRODUCT_DEFINITION_FORMATION_WITH_SPECIFIED_SOURCE(' ',' ',#18,
 .NOT_KNOWN.);
#17=PRODUCT_RELATED_PRODUCT_CATEGORY('part','',(#18));
#18=PRODUCT('ravioli_basic','ravioli_basic',' ',(#19));
#19=PRODUCT_CONTEXT(' ',#21,'mechanical');
#20=APPLICATION_PROTOCOL_DEFINITION('international standard',
'automotive_design',2010,#21);
#21=APPLICATION_CONTEXT(
'core data for automotive mechanical design processes');
#22=SHAPE_REPRESENTATION('ravioli_basic-None',(#829),#1498);
#23=SURFACE_OF_REVOLUTION('',#25,#24);
#24=AXIS1_PLACEMENT('',#1495,#1242);
#25=(
BOUNDED_CURVE()
B_SPLINE_CURVE(3,(#1491,#1492,#1493,#1494),.UNSPECIFIED.,.F.,.F.)
B_SPLINE_CURVE_WITH_KNOTS((4,4),(0.,1.),.UNSPECIFIED.)
CURVE()
GEOMETRIC_REPRESENTATION_ITEM()
RATIONAL_B_SPLINE_CURVE((1.,0.804737854124365,0.804737854124365,1.))
REPRESENTATION_ITEM('')
);
#26=VERTEX_LOOP('',#626);
#27=FACE_BOUND('',#221,.T.);
#28=FACE_BOUND('',#26,.T.);
#29=PRESENTATION_LAYER_ASSIGNMENT('1','Layer 1',(#45,#46));
#30=STYLED_ITEM('',(#32),#45);
#31=STYLED_ITEM('',(#33),#46);
#32=PRESENTATION_STYLE_ASSIGNMENT((#34));
#33=PRESENTATION_STYLE_ASSIGNMENT((#35));
#34=SURFACE_STYLE_USAGE(.BOTH.,#36);
#35=SURFACE_STYLE_USAGE(.BOTH.,#37);
#36=SURFACE_SIDE_STYLE('',(#38));
#37=SURFACE_SIDE_STYLE('',(#39));
#38=SURFACE_STYLE_FILL_AREA(#40);
#39=SURFACE_STYLE_FILL_AREA(#41);
#40=FILL_AREA_STYLE('',(#42));
#41=FILL_AREA_STYLE('',(#43));
#42=FILL_AREA_STYLE_COLOUR('',#44);
#43=FILL_AREA_STYLE_COLOUR('',#44);
#44=COLOUR_RGB('deep lemon',1.,0.909803921568627,0.384313725490196);
#45=MANIFOLD_SOLID_BREP('',#47);
#46=MANIFOLD_SOLID_BREP('',#48);
#47=CLOSED_SHELL('',(#52,#53,#54,#55,#56,#57,#58,#59,#60,#61,#62,#63,#64,
#65,#66,#67,#68,#69,#70,#71,#72,#73,#74,#75,#76,#77,#78,#79,#80,#81,#82,
#83,#84,#85,#86,#87,#88,#89,#90,#91,#92,#93));
#48=CLOSED_SHELL('',(#94,#95));
#49=PLANE('',#950);
#50=PLANE('',#951);
#51=PLANE('',#953);
#52=ADVANCED_FACE('',(#136),#96,.T.);
#53=ADVANCED_FACE('',(#137),#97,.T.);
#54=ADVANCED_FACE('',(#138),#98,.T.);
#55=ADVANCED_FACE('',(#139),#99,.T.);
#56=ADVANCED_FACE('',(#140),#100,.T.);
#57=ADVANCED_FACE('',(#141),#101,.T.);
#58=ADVANCED_FACE('',(#142),#102,.T.);
#59=ADVANCED_FACE('',(#143),#103,.T.);
#60=ADVANCED_FACE('',(#144),#104,.T.);
#61=ADVANCED_FACE('',(#145),#105,.T.);
#62=ADVANCED_FACE('',(#146),#106,.T.);
#63=ADVANCED_FACE('',(#147),#107,.T.);
#64=ADVANCED_FACE('',(#148),#108,.T.);
#65=ADVANCED_FACE('',(#149),#109,.T.);
#66=ADVANCED_FACE('',(#150),#110,.T.);
#67=ADVANCED_FACE('',(#151),#111,.T.);
#68=ADVANCED_FACE('',(#152),#112,.T.);
#69=ADVANCED_FACE('',(#153),#113,.T.);
#70=ADVANCED_FACE('',(#154),#114,.T.);
#71=ADVANCED_FACE('',(#155),#115,.T.);
#72=ADVANCED_FACE('',(#156),#116,.T.);
#73=ADVANCED_FACE('',(#157),#117,.T.);
#74=ADVANCED_FACE('',(#158),#118,.T.);
#75=ADVANCED_FACE('',(#159),#119,.T.);
#76=ADVANCED_FACE('',(#160),#120,.T.);
#77=ADVANCED_FACE('',(#161),#121,.T.);
#78=ADVANCED_FACE('',(#162),#122,.T.);
#79=ADVANCED_FACE('',(#163),#123,.T.);
#80=ADVANCED_FACE('',(#164),#124,.T.);
#81=ADVANCED_FACE('',(#165),#125,.T.);
#82=ADVANCED_FACE('',(#166),#126,.T.);
#83=ADVANCED_FACE('',(#167),#127,.T.);
#84=ADVANCED_FACE('',(#168),#128,.T.);
#85=ADVANCED_FACE('',(#169),#129,.T.);
#86=ADVANCED_FACE('',(#170),#130,.T.);
#87=ADVANCED_FACE('',(#171),#131,.T.);
#88=ADVANCED_FACE('',(#172),#132,.T.);
#89=ADVANCED_FACE('',(#173),#133,.T.);
#90=ADVANCED_FACE('',(#174),#134,.T.);
#91=ADVANCED_FACE('',(#175),#135,.T.);
#92=ADVANCED_FACE('',(#176),#49,.T.);
#93=ADVANCED_FACE('',(#177),#50,.F.);
#94=ADVANCED_FACE('',(#27,#28),#23,.T.);
#95=ADVANCED_FACE('',(#178),#51,.F.);
#96=CYLINDRICAL_SURFACE('',#832,2.);
#97=CYLINDRICAL_SURFACE('',#835,2.);
#98=CYLINDRICAL_SURFACE('',#838,2.);
#99=CYLINDRICAL_SURFACE('',#841,2.);
#100=CYLINDRICAL_SURFACE('',#844,2.);
#101=CYLINDRICAL_SURFACE('',#847,2.);
#102=CYLINDRICAL_SURFACE('',#850,2.);
#103=CYLINDRICAL_SURFACE('',#853,2.);
#104=CYLINDRICAL_SURFACE('',#856,2.);
#105=CYLINDRICAL_SURFACE('',#859,2.);
#106=CYLINDRICAL_SURFACE('',#862,2.);
#107=CYLINDRICAL_SURFACE('',#865,2.);
#108=CYLINDRICAL_SURFACE('',#868,2.);
#109=CYLINDRICAL_SURFACE('',#871,2.);
#110=CYLINDRICAL_SURFACE('',#874,2.);
#111=CYLINDRICAL_SURFACE('',#877,2.);
#112=CYLINDRICAL_SURFACE('',#880,2.);
#113=CYLINDRICAL_SURFACE('',#883,2.);
#114=CYLINDRICAL_SURFACE('',#886,2.);
#115=CYLINDRICAL_SURFACE('',#889,2.);
#116=CYLINDRICAL_SURFACE('',#892,2.);
#117=CYLINDRICAL_SURFACE('',#895,2.);
#118=CYLINDRICAL_SURFACE('',#898,2.);
#119=CYLINDRICAL_SURFACE('',#901,2.);
#120=CYLINDRICAL_SURFACE('',#904,2.);
#121=CYLINDRICAL_SURFACE('',#907,2.);
#122=CYLINDRICAL_SURFACE('',#910,2.);
#123=CYLINDRICAL_SURFACE('',#913,2.);
#124=CYLINDRICAL_SURFACE('',#916,2.);
#125=CYLINDRICAL_SURFACE('',#919,2.);
#126=CYLINDRICAL_SURFACE('',#922,2.);
#127=CYLINDRICAL_SURFACE('',#925,2.);
#128=CYLINDRICAL_SURFACE('',#928,2.);
#129=CYLINDRICAL_SURFACE('',#931,2.);
#130=CYLINDRICAL_SURFACE('',#934,2.);
#131=CYLINDRICAL_SURFACE('',#937,2.);
#132=CYLINDRICAL_SURFACE('',#940,2.);
#133=CYLINDRICAL_SURFACE('',#943,2.);
#134=CYLINDRICAL_SURFACE('',#946,2.);
#135=CYLINDRICAL_SURFACE('',#949,2.);
#136=FACE_OUTER_BOUND('',#179,.T.);
#137=FACE_OUTER_BOUND('',#180,.T.);
#138=FACE_OUTER_BOUND('',#181,.T.);
#139=FACE_OUTER_BOUND('',#182,.T.);
#140=FACE_OUTER_BOUND('',#183,.T.);
#141=FACE_OUTER_BOUND('',#184,.T.);
#142=FACE_OUTER_BOUND('',#185,.T.);
#143=FACE_OUTER_BOUND('',#186,.T.);
#144=FACE_OUTER_BOUND('',#187,.T.);
#145=FACE_OUTER_BOUND('',#188,.T.);
#146=FACE_OUTER_BOUND('',#189,.T.);
#147=FACE_OUTER_BOUND('',#190,.T.);
#148=FACE_OUTER_BOUND('',#191,.T.);
#149=FACE_OUTER_BOUND('',#192,.T.);
#150=FACE_OUTER_BOUND('',#193,.T.);
#151=FACE_OUTER_BOUND('',#194,.T.);
#152=FACE_OUTER_BOUND('',#195,.T.);
#153=FACE_OUTER_BOUND('',#196,.T.);
#154=FACE_OUTER_BOUND('',#197,.T.);
#155=FACE_OUTER_BOUND('',#198,.T.);
#156=FACE_OUTER_BOUND('',#199,.T.);
#157=FACE_OUTER_BOUND('',#200,.T.);
#158=FACE_OUTER_BOUND('',#201,.T.);
#159=FACE_OUTER_BOUND('',#202,.T.);
#160=FACE_OUTER_BOUND('',#203,.T.);
#161=FACE_OUTER_BOUND('',#204,.T.);
#162=FACE_OUTER_BOUND('',#205,.T.);
#163=FACE_OUTER_BOUND('',#206,.T.);
#164=FACE_OUTER_BOUND('',#207,.T.);
#165=FACE_OUTER_BOUND('',#208,.T.);
#166=FACE_OUTER_BOUND('',#209,.T.);
#167=FACE_OUTER_BOUND('',#210,.T.);
#168=FACE_OUTER_BOUND('',#211,.T.);
#169=FACE_OUTER_BOUND('',#212,.T.);
#170=FACE_OUTER_BOUND('',#213,.T.);
#171=FACE_OUTER_BOUND('',#214,.T.);
#172=FACE_OUTER_BOUND('',#215,.T.);
#173=FACE_OUTER_BOUND('',#216,.T.);
#174=FACE_OUTER_BOUND('',#217,.T.);
#175=FACE_OUTER_BOUND('',#218,.T.);
#176=FACE_OUTER_BOUND('',#219,.T.);
#177=FACE_OUTER_BOUND('',#220,.T.);
#178=FACE_OUTER_BOUND('',#222,.T.);
#179=EDGE_LOOP('',(#303,#304,#305,#306));
#180=EDGE_LOOP('',(#307,#308,#309,#310));
#181=EDGE_LOOP('',(#311,#312,#313,#314));
#182=EDGE_LOOP('',(#315,#316,#317,#318));
#183=EDGE_LOOP('',(#319,#320,#321,#322));
#184=EDGE_LOOP('',(#323,#324,#325,#326));
#185=EDGE_LOOP('',(#327,#328,#329,#330));
#186=EDGE_LOOP('',(#331,#332,#333,#334));
#187=EDGE_LOOP('',(#335,#336,#337,#338));
#188=EDGE_LOOP('',(#339,#340,#341,#342));
#189=EDGE_LOOP('',(#343,#344,#345,#346));
#190=EDGE_LOOP('',(#347,#348,#349,#350));
#191=EDGE_LOOP('',(#351,#352,#353,#354));
#192=EDGE_LOOP('',(#355,#356,#357,#358));
#193=EDGE_LOOP('',(#359,#360,#361,#362));
#194=EDGE_LOOP('',(#363,#364,#365,#366));
#195=EDGE_LOOP('',(#367,#368,#369,#370));
#196=EDGE_LOOP('',(#371,#372,#373,#374));
#197=EDGE_LOOP('',(#375,#376,#377,#378));
#198=EDGE_LOOP('',(#379,#380,#381,#382));
#199=EDGE_LOOP('',(#383,#384,#385,#386));
#200=EDGE_LOOP('',(#387,#388,#389,#390));
#201=EDGE_LOOP('',(#391,#392,#393,#394));
#202=EDGE_LOOP('',(#395,#396,#397,#398));
#203=EDGE_LOOP('',(#399,#400,#401,#402));
#204=EDGE_LOOP('',(#403,#404,#405,#406));
#205=EDGE_LOOP('',(#407,#408,#409,#410));
#206=EDGE_LOOP('',(#411,#412,#413,#414));
#207=EDGE_LOOP('',(#415,#416,#417,#418));
#208=EDGE_LOOP('',(#419,#420,#421,#422));
#209=EDGE_LOOP('',(#423,#424,#425,#426));
#210=EDGE_LOOP('',(#427,#428,#429,#430));
#211=EDGE_LOOP('',(#431,#432,#433,#434));
#212=EDGE_LOOP('',(#435,#436,#437,#438));
#213=EDGE_LOOP('',(#439,#440,#441,#442));
#214=EDGE_LOOP('',(#443,#444,#445,#446));
#215=EDGE_LOOP('',(#447,#448,#449,#450));
#216=EDGE_LOOP('',(#451,#452,#453,#454));
#217=EDGE_LOOP('',(#455,#456,#457,#458));
#218=EDGE_LOOP('',(#459,#460,#461,#462));
#219=EDGE_LOOP('',(#463,#464,#465,#466,#467,#468,#469,#470,#471,#472,#473,
#474,#475,#476,#477,#478,#479,#480,#481,#482,#483,#484,#485,#486,#487,#488,
#489,#490,#491,#492,#493,#494,#495,#496,#497,#498,#499,#500,#501,#502));
#220=EDGE_LOOP('',(#503,#504,#505,#506,#507,#508,#509,#510,#511,#512,#513,
#514,#515,#516,#517,#518,#519,#520,#521,#522,#523,#524,#525,#526,#527,#528,
#529,#530,#531,#532,#533,#534,#535,#536,#537,#538,#539,#540,#541,#542));
#221=EDGE_LOOP('',(#543));
#222=EDGE_LOOP('',(#544));
#223=LINE('',#1249,#263);
#224=LINE('',#1253,#264);
#225=LINE('',#1257,#265);
#226=LINE('',#1263,#266);
#227=LINE('',#1269,#267);
#228=LINE('',#1275,#268);
#229=LINE('',#1281,#269);
#230=LINE('',#1287,#270);
#231=LINE('',#1293,#271);
#232=LINE('',#1299,#272);
#233=LINE('',#1305,#273);
#234=LINE('',#1311,#274);
#235=LINE('',#1317,#275);
#236=LINE('',#1323,#276);
#237=LINE('',#1329,#277);
#238=LINE('',#1335,#278);
#239=LINE('',#1341,#279);
#240=LINE('',#1347,#280);
#241=LINE('',#1353,#281);
#242=LINE('',#1359,#282);
#243=LINE('',#1365,#283);
#244=LINE('',#1371,#284);
#245=LINE('',#1377,#285);
#246=LINE('',#1383,#286);
#247=LINE('',#1389,#287);
#248=LINE('',#1395,#288);
#249=LINE('',#1401,#289);
#250=LINE('',#1407,#290);
#251=LINE('',#1413,#291);
#252=LINE('',#1419,#292);
#253=LINE('',#1425,#293);
#254=LINE('',#1431,#294);
#255=LINE('',#1437,#295);
#256=LINE('',#1443,#296);
#257=LINE('',#1449,#297);
#258=LINE('',#1455,#298);
#259=LINE('',#1461,#299);
#260=LINE('',#1467,#300);
#261=LINE('',#1473,#301);
#262=LINE('',#1479,#302);
#263=VECTOR('',#958,1.);
#264=VECTOR('',#961,1.);
#265=VECTOR('',#966,1.);
#266=VECTOR('',#973,1.);
#267=VECTOR('',#980,1.);
#268=VECTOR('',#987,1.);
#269=VECTOR('',#994,1.);
#270=VECTOR('',#1001,1.);
#271=VECTOR('',#1008,1.);
#272=VECTOR('',#1015,1.);
#273=VECTOR('',#1022,1.);
#274=VECTOR('',#1029,1.);
#275=VECTOR('',#1036,1.);
#276=VECTOR('',#1043,1.);
#277=VECTOR('',#1050,1.);
#278=VECTOR('',#1057,1.);
#279=VECTOR('',#1064,1.);
#280=VECTOR('',#1071,1.);
#281=VECTOR('',#1078,1.);
#282=VECTOR('',#1085,1.);
#283=VECTOR('',#1092,1.);
#284=VECTOR('',#1099,1.);
#285=VECTOR('',#1106,1.);
#286=VECTOR('',#1113,1.);
#287=VECTOR('',#1120,1.);
#288=VECTOR('',#1127,1.);
#289=VECTOR('',#1134,1.);
#290=VECTOR('',#1141,1.);
#291=VECTOR('',#1148,1.);
#292=VECTOR('',#1155,1.);
#293=VECTOR('',#1162,1.);
#294=VECTOR('',#1169,1.);
#295=VECTOR('',#1176,1.);
#296=VECTOR('',#1183,1.);
#297=VECTOR('',#1190,1.);
#298=VECTOR('',#1197,1.);
#299=VECTOR('',#1204,1.);
#300=VECTOR('',#1211,1.);
#301=VECTOR('',#1218,1.);
#302=VECTOR('',#1225,1.);
#303=ORIENTED_EDGE('',*,*,#627,.T.);
#304=ORIENTED_EDGE('',*,*,#628,.F.);
#305=ORIENTED_EDGE('',*,*,#629,.F.);
#306=ORIENTED_EDGE('',*,*,#630,.T.);
#307=ORIENTED_EDGE('',*,*,#631,.T.);
#308=ORIENTED_EDGE('',*,*,#632,.F.);
#309=ORIENTED_EDGE('',*,*,#633,.F.);
#310=ORIENTED_EDGE('',*,*,#628,.T.);
#311=ORIENTED_EDGE('',*,*,#634,.T.);
#312=ORIENTED_EDGE('',*,*,#635,.F.);
#313=ORIENTED_EDGE('',*,*,#636,.F.);
#314=ORIENTED_EDGE('',*,*,#632,.T.);
#315=ORIENTED_EDGE('',*,*,#637,.T.);
#316=ORIENTED_EDGE('',*,*,#638,.F.);
#317=ORIENTED_EDGE('',*,*,#639,.F.);
#318=ORIENTED_EDGE('',*,*,#635,.T.);
#319=ORIENTED_EDGE('',*,*,#640,.T.);
#320=ORIENTED_EDGE('',*,*,#641,.F.);
#321=ORIENTED_EDGE('',*,*,#642,.F.);
#322=ORIENTED_EDGE('',*,*,#638,.T.);
#323=ORIENTED_EDGE('',*,*,#643,.T.);
#324=ORIENTED_EDGE('',*,*,#644,.F.);
#325=ORIENTED_EDGE('',*,*,#645,.F.);
#326=ORIENTED_EDGE('',*,*,#641,.T.);
#327=ORIENTED_EDGE('',*,*,#646,.T.);
#328=ORIENTED_EDGE('',*,*,#647,.F.);
#329=ORIENTED_EDGE('',*,*,#648,.F.);
#330=ORIENTED_EDGE('',*,*,#644,.T.);
#331=ORIENTED_EDGE('',*,*,#649,.T.);
#332=ORIENTED_EDGE('',*,*,#650,.F.);
#333=ORIENTED_EDGE('',*,*,#651,.F.);
#334=ORIENTED_EDGE('',*,*,#647,.T.);
#335=ORIENTED_EDGE('',*,*,#652,.T.);
#336=ORIENTED_EDGE('',*,*,#653,.F.);
#337=ORIENTED_EDGE('',*,*,#654,.F.);
#338=ORIENTED_EDGE('',*,*,#650,.T.);
#339=ORIENTED_EDGE('',*,*,#655,.T.);
#340=ORIENTED_EDGE('',*,*,#656,.F.);
#341=ORIENTED_EDGE('',*,*,#657,.F.);
#342=ORIENTED_EDGE('',*,*,#653,.T.);
#343=ORIENTED_EDGE('',*,*,#658,.T.);
#344=ORIENTED_EDGE('',*,*,#659,.F.);
#345=ORIENTED_EDGE('',*,*,#660,.F.);
#346=ORIENTED_EDGE('',*,*,#656,.T.);
#347=ORIENTED_EDGE('',*,*,#661,.T.);
#348=ORIENTED_EDGE('',*,*,#662,.F.);
#349=ORIENTED_EDGE('',*,*,#663,.F.);
#350=ORIENTED_EDGE('',*,*,#659,.T.);
#351=ORIENTED_EDGE('',*,*,#664,.T.);
#352=ORIENTED_EDGE('',*,*,#665,.F.);
#353=ORIENTED_EDGE('',*,*,#666,.F.);
#354=ORIENTED_EDGE('',*,*,#662,.T.);
#355=ORIENTED_EDGE('',*,*,#667,.T.);
#356=ORIENTED_EDGE('',*,*,#668,.F.);
#357=ORIENTED_EDGE('',*,*,#669,.F.);
#358=ORIENTED_EDGE('',*,*,#665,.T.);
#359=ORIENTED_EDGE('',*,*,#670,.T.);
#360=ORIENTED_EDGE('',*,*,#671,.F.);
#361=ORIENTED_EDGE('',*,*,#672,.F.);
#362=ORIENTED_EDGE('',*,*,#668,.T.);
#363=ORIENTED_EDGE('',*,*,#673,.T.);
#364=ORIENTED_EDGE('',*,*,#674,.F.);
#365=ORIENTED_EDGE('',*,*,#675,.F.);
#366=ORIENTED_EDGE('',*,*,#671,.T.);
#367=ORIENTED_EDGE('',*,*,#676,.T.);
#368=ORIENTED_EDGE('',*,*,#677,.F.);
#369=ORIENTED_EDGE('',*,*,#678,.F.);
#370=ORIENTED_EDGE('',*,*,#674,.T.);
#371=ORIENTED_EDGE('',*,*,#679,.T.);
#372=ORIENTED_EDGE('',*,*,#680,.F.);
#373=ORIENTED_EDGE('',*,*,#681,.F.);
#374=ORIENTED_EDGE('',*,*,#677,.T.);
#375=ORIENTED_EDGE('',*,*,#682,.T.);
#376=ORIENTED_EDGE('',*,*,#683,.F.);
#377=ORIENTED_EDGE('',*,*,#684,.F.);
#378=ORIENTED_EDGE('',*,*,#680,.T.);
#379=ORIENTED_EDGE('',*,*,#685,.T.);
#380=ORIENTED_EDGE('',*,*,#686,.F.);
#381=ORIENTED_EDGE('',*,*,#687,.F.);
#382=ORIENTED_EDGE('',*,*,#683,.T.);
#383=ORIENTED_EDGE('',*,*,#688,.T.);
#384=ORIENTED_EDGE('',*,*,#689,.F.);
#385=ORIENTED_EDGE('',*,*,#690,.F.);
#386=ORIENTED_EDGE('',*,*,#686,.T.);
#387=ORIENTED_EDGE('',*,*,#691,.T.);
#388=ORIENTED_EDGE('',*,*,#692,.F.);
#389=ORIENTED_EDGE('',*,*,#693,.F.);
#390=ORIENTED_EDGE('',*,*,#689,.T.);
#391=ORIENTED_EDGE('',*,*,#694,.T.);
#392=ORIENTED_EDGE('',*,*,#695,.F.);
#393=ORIENTED_EDGE('',*,*,#696,.F.);
#394=ORIENTED_EDGE('',*,*,#692,.T.);
#395=ORIENTED_EDGE('',*,*,#697,.T.);
#396=ORIENTED_EDGE('',*,*,#698,.F.);
#397=ORIENTED_EDGE('',*,*,#699,.F.);
#398=ORIENTED_EDGE('',*,*,#695,.T.);
#399=ORIENTED_EDGE('',*,*,#700,.T.);
#400=ORIENTED_EDGE('',*,*,#701,.F.);
#401=ORIENTED_EDGE('',*,*,#702,.F.);
#402=ORIENTED_EDGE('',*,*,#698,.T.);
#403=ORIENTED_EDGE('',*,*,#703,.T.);
#404=ORIENTED_EDGE('',*,*,#704,.F.);
#405=ORIENTED_EDGE('',*,*,#705,.F.);
#406=ORIENTED_EDGE('',*,*,#701,.T.);
#407=ORIENTED_EDGE('',*,*,#706,.T.);
#408=ORIENTED_EDGE('',*,*,#707,.F.);
#409=ORIENTED_EDGE('',*,*,#708,.F.);
#410=ORIENTED_EDGE('',*,*,#704,.T.);
#411=ORIENTED_EDGE('',*,*,#709,.T.);
#412=ORIENTED_EDGE('',*,*,#710,.F.);
#413=ORIENTED_EDGE('',*,*,#711,.F.);
#414=ORIENTED_EDGE('',*,*,#707,.T.);
#415=ORIENTED_EDGE('',*,*,#712,.T.);
#416=ORIENTED_EDGE('',*,*,#713,.F.);
#417=ORIENTED_EDGE('',*,*,#714,.F.);
#418=ORIENTED_EDGE('',*,*,#710,.T.);
#419=ORIENTED_EDGE('',*,*,#715,.T.);
#420=ORIENTED_EDGE('',*,*,#716,.F.);
#421=ORIENTED_EDGE('',*,*,#717,.F.);
#422=ORIENTED_EDGE('',*,*,#713,.T.);
#423=ORIENTED_EDGE('',*,*,#718,.T.);
#424=ORIENTED_EDGE('',*,*,#719,.F.);
#425=ORIENTED_EDGE('',*,*,#720,.F.);
#426=ORIENTED_EDGE('',*,*,#716,.T.);
#427=ORIENTED_EDGE('',*,*,#721,.T.);
#428=ORIENTED_EDGE('',*,*,#722,.F.);
#429=ORIENTED_EDGE('',*,*,#723,.F.);
#430=ORIENTED_EDGE('',*,*,#719,.T.);
#431=ORIENTED_EDGE('',*,*,#724,.T.);
#432=ORIENTED_EDGE('',*,*,#725,.F.);
#433=ORIENTED_EDGE('',*,*,#726,.F.);
#434=ORIENTED_EDGE('',*,*,#722,.T.);
#435=ORIENTED_EDGE('',*,*,#727,.T.);
#436=ORIENTED_EDGE('',*,*,#728,.F.);
#437=ORIENTED_EDGE('',*,*,#729,.F.);
#438=ORIENTED_EDGE('',*,*,#725,.T.);
#439=ORIENTED_EDGE('',*,*,#730,.T.);
#440=ORIENTED_EDGE('',*,*,#731,.F.);
#441=ORIENTED_EDGE('',*,*,#732,.F.);
#442=ORIENTED_EDGE('',*,*,#728,.T.);
#443=ORIENTED_EDGE('',*,*,#733,.T.);
#444=ORIENTED_EDGE('',*,*,#734,.F.);
#445=ORIENTED_EDGE('',*,*,#735,.F.);
#446=ORIENTED_EDGE('',*,*,#731,.T.);
#447=ORIENTED_EDGE('',*,*,#736,.T.);
#448=ORIENTED_EDGE('',*,*,#737,.F.);
#449=ORIENTED_EDGE('',*,*,#738,.F.);
#450=ORIENTED_EDGE('',*,*,#734,.T.);
#451=ORIENTED_EDGE('',*,*,#739,.T.);
#452=ORIENTED_EDGE('',*,*,#740,.F.);
#453=ORIENTED_EDGE('',*,*,#741,.F.);
#454=ORIENTED_EDGE('',*,*,#737,.T.);
#455=ORIENTED_EDGE('',*,*,#742,.T.);
#456=ORIENTED_EDGE('',*,*,#743,.F.);
#457=ORIENTED_EDGE('',*,*,#744,.F.);
#458=ORIENTED_EDGE('',*,*,#740,.T.);
#459=ORIENTED_EDGE('',*,*,#745,.T.);
#460=ORIENTED_EDGE('',*,*,#630,.F.);
#461=ORIENTED_EDGE('',*,*,#746,.F.);
#462=ORIENTED_EDGE('',*,*,#743,.T.);
#463=ORIENTED_EDGE('',*,*,#629,.T.);
#464=ORIENTED_EDGE('',*,*,#633,.T.);
#465=ORIENTED_EDGE('',*,*,#636,.T.);
#466=ORIENTED_EDGE('',*,*,#639,.T.);
#467=ORIENTED_EDGE('',*,*,#642,.T.);
#468=ORIENTED_EDGE('',*,*,#645,.T.);
#469=ORIENTED_EDGE('',*,*,#648,.T.);
#470=ORIENTED_EDGE('',*,*,#651,.T.);
#471=ORIENTED_EDGE('',*,*,#654,.T.);
#472=ORIENTED_EDGE('',*,*,#657,.T.);
#473=ORIENTED_EDGE('',*,*,#660,.T.);
#474=ORIENTED_EDGE('',*,*,#663,.T.);
#475=ORIENTED_EDGE('',*,*,#666,.T.);
#476=ORIENTED_EDGE('',*,*,#669,.T.);
#477=ORIENTED_EDGE('',*,*,#672,.T.);
#478=ORIENTED_EDGE('',*,*,#675,.T.);
#479=ORIENTED_EDGE('',*,*,#678,.T.);
#480=ORIENTED_EDGE('',*,*,#681,.T.);
#481=ORIENTED_EDGE('',*,*,#684,.T.);
#482=ORIENTED_EDGE('',*,*,#687,.T.);
#483=ORIENTED_EDGE('',*,*,#690,.T.);
#484=ORIENTED_EDGE('',*,*,#693,.T.);
#485=ORIENTED_EDGE('',*,*,#696,.T.);
#486=ORIENTED_EDGE('',*,*,#699,.T.);
#487=ORIENTED_EDGE('',*,*,#702,.T.);
#488=ORIENTED_EDGE('',*,*,#705,.T.);
#489=ORIENTED_EDGE('',*,*,#708,.T.);
#490=ORIENTED_EDGE('',*,*,#711,.T.);
#491=ORIENTED_EDGE('',*,*,#714,.T.);
#492=ORIENTED_EDGE('',*,*,#717,.T.);
#493=ORIENTED_EDGE('',*,*,#720,.T.);
#494=ORIENTED_EDGE('',*,*,#723,.T.);
#495=ORIENTED_EDGE('',*,*,#726,.T.);
#496=ORIENTED_EDGE('',*,*,#729,.T.);
#497=ORIENTED_EDGE('',*,*,#732,.T.);
#498=ORIENTED_EDGE('',*,*,#735,.T.);
#499=ORIENTED_EDGE('',*,*,#738,.T.);
#500=ORIENTED_EDGE('',*,*,#741,.T.);
#501=ORIENTED_EDGE('',*,*,#744,.T.);
#502=ORIENTED_EDGE('',*,*,#746,.T.);
#503=ORIENTED_EDGE('',*,*,#627,.F.);
#504=ORIENTED_EDGE('',*,*,#745,.F.);
#505=ORIENTED_EDGE('',*,*,#742,.F.);
#506=ORIENTED_EDGE('',*,*,#739,.F.);
#507=ORIENTED_EDGE('',*,*,#736,.F.);
#508=ORIENTED_EDGE('',*,*,#733,.F.);
#509=ORIENTED_EDGE('',*,*,#730,.F.);
#510=ORIENTED_EDGE('',*,*,#727,.F.);
#511=ORIENTED_EDGE('',*,*,#724,.F.);
#512=ORIENTED_EDGE('',*,*,#721,.F.);
#513=ORIENTED_EDGE('',*,*,#718,.F.);
#514=ORIENTED_EDGE('',*,*,#715,.F.);
#515=ORIENTED_EDGE('',*,*,#712,.F.);
#516=ORIENTED_EDGE('',*,*,#709,.F.);
#517=ORIENTED_EDGE('',*,*,#706,.F.);
#518=ORIENTED_EDGE('',*,*,#703,.F.);
#519=ORIENTED_EDGE('',*,*,#700,.F.);
#520=ORIENTED_EDGE('',*,*,#697,.F.);
#521=ORIENTED_EDGE('',*,*,#694,.F.);
#522=ORIENTED_EDGE('',*,*,#691,.F.);
#523=ORIENTED_EDGE('',*,*,#688,.F.);
#524=ORIENTED_EDGE('',*,*,#685,.F.);
#525=ORIENTED_EDGE('',*,*,#682,.F.);
#526=ORIENTED_EDGE('',*,*,#679,.F.);
#527=ORIENTED_EDGE('',*,*,#676,.F.);
#528=ORIENTED_EDGE('',*,*,#673,.F.);
#529=ORIENTED_EDGE('',*,*,#670,.F.);
#530=ORIENTED_EDGE('',*,*,#667,.F.);
#531=ORIENTED_EDGE('',*,*,#664,.F.);
#532=ORIENTED_EDGE('',*,*,#661,.F.);
#533=ORIENTED_EDGE('',*,*,#658,.F.);
#534=ORIENTED_EDGE('',*,*,#655,.F.);
#535=ORIENTED_EDGE('',*,*,#652,.F.);
#536=ORIENTED_EDGE('',*,*,#649,.F.);
#537=ORIENTED_EDGE('',*,*,#646,.F.);
#538=ORIENTED_EDGE('',*,*,#643,.F.);
#539=ORIENTED_EDGE('',*,*,#640,.F.);
#540=ORIENTED_EDGE('',*,*,#637,.F.);
#541=ORIENTED_EDGE('',*,*,#634,.F.);
#542=ORIENTED_EDGE('',*,*,#631,.F.);
#543=ORIENTED_EDGE('',*,*,#747,.F.);
#544=ORIENTED_EDGE('',*,*,#747,.T.);
#545=VERTEX_POINT('',#1247);
#546=VERTEX_POINT('',#1248);
#547=VERTEX_POINT('',#1250);
#548=VERTEX_POINT('',#1252);
#549=VERTEX_POINT('',#1256);
#550=VERTEX_POINT('',#1258);
#551=VERTEX_POINT('',#1262);
#552=VERTEX_POINT('',#1264);
#553=VERTEX_POINT('',#1268);
#554=VERTEX_POINT('',#1270);
#555=VERTEX_POINT('',#1274);
#556=VERTEX_POINT('',#1276);
#557=VERTEX_POINT('',#1280);
#558=VERTEX_POINT('',#1282);
#559=VERTEX_POINT('',#1286);
#560=VERTEX_POINT('',#1288);
#561=VERTEX_POINT('',#1292);
#562=VERTEX_POINT('',#1294);
#563=VERTEX_POINT('',#1298);
#564=VERTEX_POINT('',#1300);
#565=VERTEX_POINT('',#1304);
#566=VERTEX_POINT('',#1306);
#567=VERTEX_POINT('',#1310);
#568=VERTEX_POINT('',#1312);
#569=VERTEX_POINT('',#1316);
#570=VERTEX_POINT('',#1318);
#571=VERTEX_POINT('',#1322);
#572=VERTEX_POINT('',#1324);
#573=VERTEX_POINT('',#1328);
#574=VERTEX_POINT('',#1330);
#575=VERTEX_POINT('',#1334);
#576=VERTEX_POINT('',#1336);
#577=VERTEX_POINT('',#1340);
#578=VERTEX_POINT('',#1342);
#579=VERTEX_POINT('',#1346);
#580=VERTEX_POINT('',#1348);
#581=VERTEX_POINT('',#1352);
#582=VERTEX_POINT('',#1354);
#583=VERTEX_POINT('',#1358);
#584=VERTEX_POINT('',#1360);
#585=VERTEX_POINT('',#1364);
#586=VERTEX_POINT('',#1366);
#587=VERTEX_POINT('',#1370);
#588=VERTEX_POINT('',#1372);
#589=VERTEX_POINT('',#1376);
#590=VERTEX_POINT('',#1378);
#591=VERTEX_POINT('',#1382);
#592=VERTEX_POINT('',#1384);
#593=VERTEX_POINT('',#1388);
#594=VERTEX_POINT('',#1390);
#595=VERTEX_POINT('',#1394);
#596=VERTEX_POINT('',#1396);
#597=VERTEX_POINT('',#1400);
#598=VERTEX_POINT('',#1402);
#599=VERTEX_POINT('',#1406);
#600=VERTEX_POINT('',#1408);
#601=VERTEX_POINT('',#1412);
#602=VERTEX_POINT('',#1414);
#603=VERTEX_POINT('',#1418);
#604=VERTEX_POINT('',#1420);
#605=VERTEX_POINT('',#1424);
#606=VERTEX_POINT('',#1426);
#607=VERTEX_POINT('',#1430);
#608=VERTEX_POINT('',#1432);
#609=VERTEX_POINT('',#1436);
#610=VERTEX_POINT('',#1438);
#611=VERTEX_POINT('',#1442);
#612=VERTEX_POINT('',#1444);
#613=VERTEX_POINT('',#1448);
#614=VERTEX_POINT('',#1450);
#615=VERTEX_POINT('',#1454);
#616=VERTEX_POINT('',#1456);
#617=VERTEX_POINT('',#1460);
#618=VERTEX_POINT('',#1462);
#619=VERTEX_POINT('',#1466);
#620=VERTEX_POINT('',#1468);
#621=VERTEX_POINT('',#1472);
#622=VERTEX_POINT('',#1474);
#623=VERTEX_POINT('',#1478);
#624=VERTEX_POINT('',#1480);
#625=VERTEX_POINT('',#1489);
#626=VERTEX_POINT('',#1490);
#627=EDGE_CURVE('',#545,#546,#748,.T.);
#628=EDGE_CURVE('',#547,#546,#223,.T.);
#629=EDGE_CURVE('',#548,#547,#749,.T.);
#630=EDGE_CURVE('',#548,#545,#224,.T.);
#631=EDGE_CURVE('',#546,#549,#750,.T.);
#632=EDGE_CURVE('',#550,#549,#225,.T.);
#633=EDGE_CURVE('',#547,#550,#751,.T.);
#634=EDGE_CURVE('',#549,#551,#752,.T.);
#635=EDGE_CURVE('',#552,#551,#226,.T.);
#636=EDGE_CURVE('',#550,#552,#753,.T.);
#637=EDGE_CURVE('',#551,#553,#754,.T.);
#638=EDGE_CURVE('',#554,#553,#227,.T.);
#639=EDGE_CURVE('',#552,#554,#755,.T.);
#640=EDGE_CURVE('',#553,#555,#756,.T.);
#641=EDGE_CURVE('',#556,#555,#228,.T.);
#642=EDGE_CURVE('',#554,#556,#757,.T.);
#643=EDGE_CURVE('',#555,#557,#758,.T.);
#644=EDGE_CURVE('',#558,#557,#229,.T.);
#645=EDGE_CURVE('',#556,#558,#759,.T.);
#646=EDGE_CURVE('',#557,#559,#760,.T.);
#647=EDGE_CURVE('',#560,#559,#230,.T.);
#648=EDGE_CURVE('',#558,#560,#761,.T.);
#649=EDGE_CURVE('',#559,#561,#762,.T.);
#650=EDGE_CURVE('',#562,#561,#231,.T.);
#651=EDGE_CURVE('',#560,#562,#763,.T.);
#652=EDGE_CURVE('',#561,#563,#764,.T.);
#653=EDGE_CURVE('',#564,#563,#232,.T.);
#654=EDGE_CURVE('',#562,#564,#765,.T.);
#655=EDGE_CURVE('',#563,#565,#766,.T.);
#656=EDGE_CURVE('',#566,#565,#233,.T.);
#657=EDGE_CURVE('',#564,#566,#767,.T.);
#658=EDGE_CURVE('',#565,#567,#768,.T.);
#659=EDGE_CURVE('',#568,#567,#234,.T.);
#660=EDGE_CURVE('',#566,#568,#769,.T.);
#661=EDGE_CURVE('',#567,#569,#770,.T.);
#662=EDGE_CURVE('',#570,#569,#235,.T.);
#663=EDGE_CURVE('',#568,#570,#771,.T.);
#664=EDGE_CURVE('',#569,#571,#772,.T.);
#665=EDGE_CURVE('',#572,#571,#236,.T.);
#666=EDGE_CURVE('',#570,#572,#773,.T.);
#667=EDGE_CURVE('',#571,#573,#774,.T.);
#668=EDGE_CURVE('',#574,#573,#237,.T.);
#669=EDGE_CURVE('',#572,#574,#775,.T.);
#670=EDGE_CURVE('',#573,#575,#776,.T.);
#671=EDGE_CURVE('',#576,#575,#238,.T.);
#672=EDGE_CURVE('',#574,#576,#777,.T.);
#673=EDGE_CURVE('',#575,#577,#778,.T.);
#674=EDGE_CURVE('',#578,#577,#239,.T.);
#675=EDGE_CURVE('',#576,#578,#779,.T.);
#676=EDGE_CURVE('',#577,#579,#780,.T.);
#677=EDGE_CURVE('',#580,#579,#240,.T.);
#678=EDGE_CURVE('',#578,#580,#781,.T.);
#679=EDGE_CURVE('',#579,#581,#782,.T.);
#680=EDGE_CURVE('',#582,#581,#241,.T.);
#681=EDGE_CURVE('',#580,#582,#783,.T.);
#682=EDGE_CURVE('',#581,#583,#784,.T.);
#683=EDGE_CURVE('',#584,#583,#242,.T.);
#684=EDGE_CURVE('',#582,#584,#785,.T.);
#685=EDGE_CURVE('',#583,#585,#786,.T.);
#686=EDGE_CURVE('',#586,#585,#243,.T.);
#687=EDGE_CURVE('',#584,#586,#787,.T.);
#688=EDGE_CURVE('',#585,#587,#788,.T.);
#689=EDGE_CURVE('',#588,#587,#244,.T.);
#690=EDGE_CURVE('',#586,#588,#789,.T.);
#691=EDGE_CURVE('',#587,#589,#790,.T.);
#692=EDGE_CURVE('',#590,#589,#245,.T.);
#693=EDGE_CURVE('',#588,#590,#791,.T.);
#694=EDGE_CURVE('',#589,#591,#792,.T.);
#695=EDGE_CURVE('',#592,#591,#246,.T.);
#696=EDGE_CURVE('',#590,#592,#793,.T.);
#697=EDGE_CURVE('',#591,#593,#794,.T.);
#698=EDGE_CURVE('',#594,#593,#247,.T.);
#699=EDGE_CURVE('',#592,#594,#795,.T.);
#700=EDGE_CURVE('',#593,#595,#796,.T.);
#701=EDGE_CURVE('',#596,#595,#248,.T.);
#702=EDGE_CURVE('',#594,#596,#797,.T.);
#703=EDGE_CURVE('',#595,#597,#798,.T.);
#704=EDGE_CURVE('',#598,#597,#249,.T.);
#705=EDGE_CURVE('',#596,#598,#799,.T.);
#706=EDGE_CURVE('',#597,#599,#800,.T.);
#707=EDGE_CURVE('',#600,#599,#250,.T.);
#708=EDGE_CURVE('',#598,#600,#801,.T.);
#709=EDGE_CURVE('',#599,#601,#802,.T.);
#710=EDGE_CURVE('',#602,#601,#251,.T.);
#711=EDGE_CURVE('',#600,#602,#803,.T.);
#712=EDGE_CURVE('',#601,#603,#804,.T.);
#713=EDGE_CURVE('',#604,#603,#252,.T.);
#714=EDGE_CURVE('',#602,#604,#805,.T.);
#715=EDGE_CURVE('',#603,#605,#806,.T.);
#716=EDGE_CURVE('',#606,#605,#253,.T.);
#717=EDGE_CURVE('',#604,#606,#807,.T.);
#718=EDGE_CURVE('',#605,#607,#808,.T.);
#719=EDGE_CURVE('',#608,#607,#254,.T.);
#720=EDGE_CURVE('',#606,#608,#809,.T.);
#721=EDGE_CURVE('',#607,#609,#810,.T.);
#722=EDGE_CURVE('',#610,#609,#255,.T.);
#723=EDGE_CURVE('',#608,#610,#811,.T.);
#724=EDGE_CURVE('',#609,#611,#812,.T.);
#725=EDGE_CURVE('',#612,#611,#256,.T.);
#726=EDGE_CURVE('',#610,#612,#813,.T.);
#727=EDGE_CURVE('',#611,#613,#814,.T.);
#728=EDGE_CURVE('',#614,#613,#257,.T.);
#729=EDGE_CURVE('',#612,#614,#815,.T.);
#730=EDGE_CURVE('',#613,#615,#816,.T.);
#731=EDGE_CURVE('',#616,#615,#258,.T.);
#732=EDGE_CURVE('',#614,#616,#817,.T.);
#733=EDGE_CURVE('',#615,#617,#818,.T.);
#734=EDGE_CURVE('',#618,#617,#259,.T.);
#735=EDGE_CURVE('',#616,#618,#819,.T.);
#736=EDGE_CURVE('',#617,#619,#820,.T.);
#737=EDGE_CURVE('',#620,#619,#260,.T.);
#738=EDGE_CURVE('',#618,#620,#821,.T.);
#739=EDGE_CURVE('',#619,#621,#822,.T.);
#740=EDGE_CURVE('',#622,#621,#261,.T.);
#741=EDGE_CURVE('',#620,#622,#823,.T.);
#742=EDGE_CURVE('',#621,#623,#824,.T.);
#743=EDGE_CURVE('',#624,#623,#262,.T.);
#744=EDGE_CURVE('',#622,#624,#825,.T.);
#745=EDGE_CURVE('',#623,#545,#826,.T.);
#746=EDGE_CURVE('',#624,#548,#827,.T.);
#747=EDGE_CURVE('',#625,#625,#828,.T.);
#748=CIRCLE('',#830,2.);
#749=CIRCLE('',#831,2.);
#750=CIRCLE('',#833,2.);
#751=CIRCLE('',#834,2.);
#752=CIRCLE('',#836,2.);
#753=CIRCLE('',#837,2.);
#754=CIRCLE('',#839,2.);
#755=CIRCLE('',#840,2.);
#756=CIRCLE('',#842,2.);
#757=CIRCLE('',#843,2.);
#758=CIRCLE('',#845,2.);
#759=CIRCLE('',#846,2.);
#760=CIRCLE('',#848,2.);
#761=CIRCLE('',#849,2.);
#762=CIRCLE('',#851,2.);
#763=CIRCLE('',#852,2.);
#764=CIRCLE('',#854,2.);
#765=CIRCLE('',#855,2.);
#766=CIRCLE('',#857,2.);
#767=CIRCLE('',#858,2.);
#768=CIRCLE('',#860,2.);
#769=CIRCLE('',#861,2.);
#770=CIRCLE('',#863,2.);
#771=CIRCLE('',#864,2.);
#772=CIRCLE('',#866,2.);
#773=CIRCLE('',#867,2.);
#774=CIRCLE('',#869,2.);
#775=CIRCLE('',#870,2.);
#776=CIRCLE('',#872,2.);
#777=CIRCLE('',#873,2.);
#778=CIRCLE('',#875,2.);
#779=CIRCLE('',#876,2.);
#780=CIRCLE('',#878,2.);
#781=CIRCLE('',#879,2.);
#782=CIRCLE('',#881,2.);
#783=CIRCLE('',#882,2.);
#784=CIRCLE('',#884,2.);
#785=CIRCLE('',#885,2.);
#786=CIRCLE('',#887,2.);
#787=CIRCLE('',#888,2.);
#788=CIRCLE('',#890,2.);
#789=CIRCLE('',#891,2.);
#790=CIRCLE('',#893,2.);
#791=CIRCLE('',#894,2.);
#792=CIRCLE('',#896,2.);
#793=CIRCLE('',#897,2.);
#794=CIRCLE('',#899,2.);
#795=CIRCLE('',#900,2.);
#796=CIRCLE('',#902,2.);
#797=CIRCLE('',#903,2.);
#798=CIRCLE('',#905,2.);
#799=CIRCLE('',#906,2.);
#800=CIRCLE('',#908,2.);
#801=CIRCLE('',#909,2.);
#802=CIRCLE('',#911,2.);
#803=CIRCLE('',#912,2.);
#804=CIRCLE('',#914,2.);
#805=CIRCLE('',#915,2.);
#806=CIRCLE('',#917,2.);
#807=CIRCLE('',#918,2.);
#808=CIRCLE('',#920,2.);
#809=CIRCLE('',#921,2.);
#810=CIRCLE('',#923,2.);
#811=CIRCLE('',#924,2.);
#812=CIRCLE('',#926,2.);
#813=CIRCLE('',#927,2.);
#814=CIRCLE('',#929,2.);
#815=CIRCLE('',#930,2.);
#816=CIRCLE('',#932,2.);
#817=CIRCLE('',#933,2.);
#818=CIRCLE('',#935,2.);
#819=CIRCLE('',#936,2.);
#820=CIRCLE('',#938,2.);
#821=CIRCLE('',#939,2.);
#822=CIRCLE('',#941,2.);
#823=CIRCLE('',#942,2.);
#824=CIRCLE('',#944,2.);
#825=CIRCLE('',#945,2.);
#826=CIRCLE('',#947,2.);
#827=CIRCLE('',#948,2.);
#828=CIRCLE('',#952,13.7771016406737);
#829=AXIS2_PLACEMENT_3D('',#1245,#954,#955);
#830=AXIS2_PLACEMENT_3D('',#1246,#956,#957);
#831=AXIS2_PLACEMENT_3D('',#1251,#959,#960);
#832=AXIS2_PLACEMENT_3D('',#1254,#962,#963);
#833=AXIS2_PLACEMENT_3D('',#1255,#964,#965);
#834=AXIS2_PLACEMENT_3D('',#1259,#967,#968);
#835=AXIS2_PLACEMENT_3D('',#1260,#969,#970);
#836=AXIS2_PLACEMENT_3D('',#1261,#971,#972);
#837=AXIS2_PLACEMENT_3D('',#1265,#974,#975);
#838=AXIS2_PLACEMENT_3D('',#1266,#976,#977);
#839=AXIS2_PLACEMENT_3D('',#1267,#978,#979);
#840=AXIS2_PLACEMENT_3D('',#1271,#981,#982);
#841=AXIS2_PLACEMENT_3D('',#1272,#983,#984);
#842=AXIS2_PLACEMENT_3D('',#1273,#985,#986);
#843=AXIS2_PLACEMENT_3D('',#1277,#988,#989);
#844=AXIS2_PLACEMENT_3D('',#1278,#990,#991);
#845=AXIS2_PLACEMENT_3D('',#1279,#992,#993);
#846=AXIS2_PLACEMENT_3D('',#1283,#995,#996);
#847=AXIS2_PLACEMENT_3D('',#1284,#997,#998);
#848=AXIS2_PLACEMENT_3D('',#1285,#999,#1000);
#849=AXIS2_PLACEMENT_3D('',#1289,#1002,#1003);
#850=AXIS2_PLACEMENT_3D('',#1290,#1004,#1005);
#851=AXIS2_PLACEMENT_3D('',#1291,#1006,#1007);
#852=AXIS2_PLACEMENT_3D('',#1295,#1009,#1010);
#853=AXIS2_PLACEMENT_3D('',#1296,#1011,#1012);
#854=AXIS2_PLACEMENT_3D('',#1297,#1013,#1014);
#855=AXIS2_PLACEMENT_3D('',#1301,#1016,#1017);
#856=AXIS2_PLACEMENT_3D('',#1302,#1018,#1019);
#857=AXIS2_PLACEMENT_3D('',#1303,#1020,#1021);
#858=AXIS2_PLACEMENT_3D('',#1307,#1023,#1024);
#859=AXIS2_PLACEMENT_3D('',#1308,#1025,#1026);
#860=AXIS2_PLACEMENT_3D('',#1309,#1027,#1028);
#861=AXIS2_PLACEMENT_3D('',#1313,#1030,#1031);
#862=AXIS2_PLACEMENT_3D('',#1314,#1032,#1033);
#863=AXIS2_PLACEMENT_3D('',#1315,#1034,#1035);
#864=AXIS2_PLACEMENT_3D('',#1319,#1037,#1038);
#865=AXIS2_PLACEMENT_3D('',#1320,#1039,#1040);
#866=AXIS2_PLACEMENT_3D('',#1321,#1041,#1042);
#867=AXIS2_PLACEMENT_3D('',#1325,#1044,#1045);
#868=AXIS2_PLACEMENT_3D('',#1326,#1046,#1047);
#869=AXIS2_PLACEMENT_3D('',#1327,#1048,#1049);
#870=AXIS2_PLACEMENT_3D('',#1331,#1051,#1052);
#871=AXIS2_PLACEMENT_3D('',#1332,#1053,#1054);
#872=AXIS2_PLACEMENT_3D('',#1333,#1055,#1056);
#873=AXIS2_PLACEMENT_3D('',#1337,#1058,#1059);
#874=AXIS2_PLACEMENT_3D('',#1338,#1060,#1061);
#875=AXIS2_PLACEMENT_3D('',#1339,#1062,#1063);
#876=AXIS2_PLACEMENT_3D('',#1343,#1065,#1066);
#877=AXIS2_PLACEMENT_3D('',#1344,#1067,#1068);
#878=AXIS2_PLACEMENT_3D('',#1345,#1069,#1070);
#879=AXIS2_PLACEMENT_3D('',#1349,#1072,#1073);
#880=AXIS2_PLACEMENT_3D('',#1350,#1074,#1075);
#881=AXIS2_PLACEMENT_3D('',#1351,#1076,#1077);
#882=AXIS2_PLACEMENT_3D('',#1355,#1079,#1080);
#883=AXIS2_PLACEMENT_3D('',#1356,#1081,#1082);
#884=AXIS2_PLACEMENT_3D('',#1357,#1083,#1084);
#885=AXIS2_PLACEMENT_3D('',#1361,#1086,#1087);
#886=AXIS2_PLACEMENT_3D('',#1362,#1088,#1089);
#887=AXIS2_PLACEMENT_3D('',#1363,#1090,#1091);
#888=AXIS2_PLACEMENT_3D('',#1367,#1093,#1094);
#889=AXIS2_PLACEMENT_3D('',#1368,#1095,#1096);
#890=AXIS2_PLACEMENT_3D('',#1369,#1097,#1098);
#891=AXIS2_PLACEMENT_3D('',#1373,#1100,#1101);
#892=AXIS2_PLACEMENT_3D('',#1374,#1102,#1103);
#893=AXIS2_PLACEMENT_3D('',#1375,#1104,#1105);
#894=AXIS2_PLACEMENT_3D('',#1379,#1107,#1108);
#895=AXIS2_PLACEMENT_3D('',#1380,#1109,#1110);
#896=AXIS2_PLACEMENT_3D('',#1381,#1111,#1112);
#897=AXIS2_PLACEMENT_3D('',#1385,#1114,#1115);
#898=AXIS2_PLACEMENT_3D('',#1386,#1116,#1117);
#899=AXIS2_PLACEMENT_3D('',#1387,#1118,#1119);
#900=AXIS2_PLACEMENT_3D('',#1391,#1121,#1122);
#901=AXIS2_PLACEMENT_3D('',#1392,#1123,#1124);
#902=AXIS2_PLACEMENT_3D('',#1393,#1125,#1126);
#903=AXIS2_PLACEMENT_3D('',#1397,#1128,#1129);
#904=AXIS2_PLACEMENT_3D('',#1398,#1130,#1131);
#905=AXIS2_PLACEMENT_3D('',#1399,#1132,#1133);
#906=AXIS2_PLACEMENT_3D('',#1403,#1135,#1136);
#907=AXIS2_PLACEMENT_3D('',#1404,#1137,#1138);
#908=AXIS2_PLACEMENT_3D('',#1405,#1139,#1140);
#909=AXIS2_PLACEMENT_3D('',#1409,#1142,#1143);
#910=AXIS2_PLACEMENT_3D('',#1410,#1144,#1145);
#911=AXIS2_PLACEMENT_3D('',#1411,#1146,#1147);
#912=AXIS2_PLACEMENT_3D('',#1415,#1149,#1150);
#913=AXIS2_PLACEMENT_3D('',#1416,#1151,#1152);
#914=AXIS2_PLACEMENT_3D('',#1417,#1153,#1154);
#915=AXIS2_PLACEMENT_3D('',#1421,#1156,#1157);
#916=AXIS2_PLACEMENT_3D('',#1422,#1158,#1159);
#917=AXIS2_PLACEMENT_3D('',#1423,#1160,#1161);
#918=AXIS2_PLACEMENT_3D('',#1427,#1163,#1164);
#919=AXIS2_PLACEMENT_3D('',#1428,#1165,#1166);
#920=AXIS2_PLACEMENT_3D('',#1429,#1167,#1168);
#921=AXIS2_PLACEMENT_3D('',#1433,#1170,#1171);
#922=AXIS2_PLACEMENT_3D('',#1434,#1172,#1173);
#923=AXIS2_PLACEMENT_3D('',#1435,#1174,#1175);
#924=AXIS2_PLACEMENT_3D('',#1439,#1177,#1178);
#925=AXIS2_PLACEMENT_3D('',#1440,#1179,#1180);
#926=AXIS2_PLACEMENT_3D('',#1441,#1181,#1182);
#927=AXIS2_PLACEMENT_3D('',#1445,#1184,#1185);
#928=AXIS2_PLACEMENT_3D('',#1446,#1186,#1187);
#929=AXIS2_PLACEMENT_3D('',#1447,#1188,#1189);
#930=AXIS2_PLACEMENT_3D('',#1451,#1191,#1192);
#931=AXIS2_PLACEMENT_3D('',#1452,#1193,#1194);
#932=AXIS2_PLACEMENT_3D('',#1453,#1195,#1196);
#933=AXIS2_PLACEMENT_3D('',#1457,#1198,#1199);
#934=AXIS2_PLACEMENT_3D('',#1458,#1200,#1201);
#935=AXIS2_PLACEMENT_3D('',#1459,#1202,#1203);
#936=AXIS2_PLACEMENT_3D('',#1463,#1205,#1206);
#937=AXIS2_PLACEMENT_3D('',#1464,#1207,#1208);
#938=AXIS2_PLACEMENT_3D('',#1465,#1209,#1210);
#939=AXIS2_PLACEMENT_3D('',#1469,#1212,#1213);
#940=AXIS2_PLACEMENT_3D('',#1470,#1214,#1215);
#941=AXIS2_PLACEMENT_3D('',#1471,#1216,#1217);
#942=AXIS2_PLACEMENT_3D('',#1475,#1219,#1220);
#943=AXIS2_PLACEMENT_3D('',#1476,#1221,#1222);
#944=AXIS2_PLACEMENT_3D('',#1477,#1223,#1224);
#945=AXIS2_PLACEMENT_3D('',#1481,#1226,#1227);
#946=AXIS2_PLACEMENT_3D('',#1482,#1228,#1229);
#947=AXIS2_PLACEMENT_3D('',#1483,#1230,#1231);
#948=AXIS2_PLACEMENT_3D('',#1484,#1232,#1233);
#949=AXIS2_PLACEMENT_3D('',#1485,#1234,#1235);
#950=AXIS2_PLACEMENT_3D('',#1486,#1236,#1237);
#951=AXIS2_PLACEMENT_3D('',#1487,#1238,#1239);
#952=AXIS2_PLACEMENT_3D('',#1488,#1240,#1241);
#953=AXIS2_PLACEMENT_3D('',#1496,#1243,#1244);
#954=DIRECTION('',(0.,0.,1.));
#955=DIRECTION('',(1.,0.,0.));
#956=DIRECTION('',(0.,0.,1.));
#957=DIRECTION('',(0.999999999999999,0.,0.));
#958=DIRECTION('',(0.,0.,-1.));
#959=DIRECTION('',(0.,0.,1.));
#960=DIRECTION('',(0.999999999999999,0.,0.));
#961=DIRECTION('',(0.,0.,-1.));
#962=DIRECTION('',(0.,0.,-1.));
#963=DIRECTION('',(-0.999999999999999,0.,0.));
#964=DIRECTION('',(0.,0.,1.));
#965=DIRECTION('',(0.999999999999999,0.,0.));
#966=DIRECTION('',(0.,0.,-1.));
#967=DIRECTION('',(0.,0.,1.));
#968=DIRECTION('',(0.999999999999999,0.,0.));
#969=DIRECTION('',(0.,0.,-1.));
#970=DIRECTION('',(-0.999999999999999,0.,0.));
#971=DIRECTION('',(0.,0.,1.));
#972=DIRECTION('',(0.,0.999999999999999,0.));
#973=DIRECTION('',(0.,0.,-1.));
#974=DIRECTION('',(0.,0.,1.));
#975=DIRECTION('',(0.,0.999999999999999,0.));
#976=DIRECTION('',(0.,0.,-1.));
#977=DIRECTION('',(-1.,0.,0.));
#978=DIRECTION('',(0.,0.,1.));
#979=DIRECTION('',(0.,1.,0.));
#980=DIRECTION('',(0.,0.,-1.));
#981=DIRECTION('',(0.,0.,1.));
#982=DIRECTION('',(0.,1.,0.));
#983=DIRECTION('',(0.,0.,-1.));
#984=DIRECTION('',(-1.,0.,0.));
#985=DIRECTION('',(0.,0.,1.));
#986=DIRECTION('',(0.,1.,0.));
#987=DIRECTION('',(0.,0.,-1.));
#988=DIRECTION('',(0.,0.,1.));
#989=DIRECTION('',(0.,1.,0.));
#990=DIRECTION('',(0.,0.,-1.));
#991=DIRECTION('',(-1.,0.,0.));
#992=DIRECTION('',(0.,0.,1.));
#993=DIRECTION('',(0.,1.,0.));
#994=DIRECTION('',(0.,0.,-1.));
#995=DIRECTION('',(0.,0.,1.));
#996=DIRECTION('',(0.,1.,0.));
#997=DIRECTION('',(0.,0.,-1.));
#998=DIRECTION('',(-1.,0.,0.));
#999=DIRECTION('',(0.,0.,1.));
#1000=DIRECTION('',(6.12323399573675E-17,1.,0.));
#1001=DIRECTION('',(0.,0.,-1.));
#1002=DIRECTION('',(0.,0.,1.));
#1003=DIRECTION('',(6.12323399573675E-17,1.,0.));
#1004=DIRECTION('',(0.,0.,-1.));
#1005=DIRECTION('',(-1.,0.,0.));
#1006=DIRECTION('',(0.,0.,1.));
#1007=DIRECTION('',(0.,1.,0.));
#1008=DIRECTION('',(0.,0.,-1.));
#1009=DIRECTION('',(0.,0.,1.));
#1010=DIRECTION('',(0.,1.,0.));
#1011=DIRECTION('',(0.,0.,-1.));
#1012=DIRECTION('',(-1.,0.,0.));
#1013=DIRECTION('',(0.,0.,1.));
#1014=DIRECTION('',(0.,0.999999999999999,0.));
#1015=DIRECTION('',(0.,0.,-1.));
#1016=DIRECTION('',(0.,0.,1.));
#1017=DIRECTION('',(0.,0.999999999999999,0.));
#1018=DIRECTION('',(0.,0.,-1.));
#1019=DIRECTION('',(-1.,0.,0.));
#1020=DIRECTION('',(0.,0.,1.));
#1021=DIRECTION('',(0.,1.,0.));
#1022=DIRECTION('',(0.,0.,-1.));
#1023=DIRECTION('',(0.,0.,1.));
#1024=DIRECTION('',(0.,1.,0.));
#1025=DIRECTION('',(0.,0.,-1.));
#1026=DIRECTION('',(-1.,0.,0.));
#1027=DIRECTION('',(0.,0.,1.));
#1028=DIRECTION('',(0.,1.,0.));
#1029=DIRECTION('',(0.,0.,-1.));
#1030=DIRECTION('',(0.,0.,1.));
#1031=DIRECTION('',(0.,1.,0.));
#1032=DIRECTION('',(0.,0.,-1.));
#1033=DIRECTION('',(-1.,0.,0.));
#1034=DIRECTION('',(0.,0.,1.));
#1035=DIRECTION('',(0.,0.999999999999999,0.));
#1036=DIRECTION('',(0.,0.,-1.));
#1037=DIRECTION('',(0.,0.,1.));
#1038=DIRECTION('',(0.,0.999999999999999,0.));
#1039=DIRECTION('',(0.,0.,-1.));
#1040=DIRECTION('',(-1.,0.,0.));
#1041=DIRECTION('',(0.,0.,1.));
#1042=DIRECTION('',(0.,1.,0.));
#1043=DIRECTION('',(0.,0.,-1.));
#1044=DIRECTION('',(0.,0.,1.));
#1045=DIRECTION('',(0.,1.,0.));
#1046=DIRECTION('',(0.,0.,-1.));
#1047=DIRECTION('',(-0.999999999999999,0.,0.));
#1048=DIRECTION('',(0.,0.,1.));
#1049=DIRECTION('',(0.,1.,0.));
#1050=DIRECTION('',(0.,0.,-1.));
#1051=DIRECTION('',(0.,0.,1.));
#1052=DIRECTION('',(0.,1.,0.));
#1053=DIRECTION('',(0.,0.,-1.));
#1054=DIRECTION('',(-1.,0.,0.));
#1055=DIRECTION('',(0.,0.,1.));
#1056=DIRECTION('',(0.,1.,0.));
#1057=DIRECTION('',(0.,0.,-1.));
#1058=DIRECTION('',(0.,0.,1.));
#1059=DIRECTION('',(0.,1.,0.));
#1060=DIRECTION('',(0.,0.,-1.));
#1061=DIRECTION('',(-1.,0.,0.));
#1062=DIRECTION('',(0.,0.,1.));
#1063=DIRECTION('',(0.,1.,0.));
#1064=DIRECTION('',(0.,0.,-1.));
#1065=DIRECTION('',(0.,0.,1.));
#1066=DIRECTION('',(0.,1.,0.));
#1067=DIRECTION('',(0.,0.,-1.));
#1068=DIRECTION('',(-1.,0.,0.));
#1069=DIRECTION('',(0.,0.,1.));
#1070=DIRECTION('',(0.,1.,0.));
#1071=DIRECTION('',(0.,0.,-1.));
#1072=DIRECTION('',(0.,0.,1.));
#1073=DIRECTION('',(0.,1.,0.));
#1074=DIRECTION('',(0.,0.,-1.));
#1075=DIRECTION('',(-0.999999999999999,0.,0.));
#1076=DIRECTION('',(0.,0.,1.));
#1077=DIRECTION('',(0.,1.,0.));
#1078=DIRECTION('',(0.,0.,-1.));
#1079=DIRECTION('',(0.,0.,1.));
#1080=DIRECTION('',(0.,1.,0.));
#1081=DIRECTION('',(0.,0.,-1.));
#1082=DIRECTION('',(-1.,0.,0.));
#1083=DIRECTION('',(0.,0.,1.));
#1084=DIRECTION('',(0.,1.,0.));
#1085=DIRECTION('',(0.,0.,-1.));
#1086=DIRECTION('',(0.,0.,1.));
#1087=DIRECTION('',(0.,1.,0.));
#1088=DIRECTION('',(0.,0.,-1.));
#1089=DIRECTION('',(-1.,0.,0.));
#1090=DIRECTION('',(0.,0.,1.));
#1091=DIRECTION('',(0.,1.,0.));
#1092=DIRECTION('',(0.,0.,-1.));
#1093=DIRECTION('',(0.,0.,1.));
#1094=DIRECTION('',(0.,1.,0.));
#1095=DIRECTION('',(0.,0.,-1.));
#1096=DIRECTION('',(-1.,0.,0.));
#1097=DIRECTION('',(0.,0.,1.));
#1098=DIRECTION('',(0.,1.,0.));
#1099=DIRECTION('',(0.,0.,-1.));
#1100=DIRECTION('',(0.,0.,1.));
#1101=DIRECTION('',(0.,1.,0.));
#1102=DIRECTION('',(0.,0.,-1.));
#1103=DIRECTION('',(-0.999999999999999,0.,0.));
#1104=DIRECTION('',(0.,0.,1.));
#1105=DIRECTION('',(1.,0.,0.));
#1106=DIRECTION('',(0.,0.,-1.));
#1107=DIRECTION('',(0.,0.,1.));
#1108=DIRECTION('',(1.,0.,0.));
#1109=DIRECTION('',(0.,0.,-1.));
#1110=DIRECTION('',(-1.,0.,0.));
#1111=DIRECTION('',(0.,0.,1.));
#1112=DIRECTION('',(0.999999999999999,0.,0.));
#1113=DIRECTION('',(0.,0.,-1.));
#1114=DIRECTION('',(0.,0.,1.));
#1115=DIRECTION('',(0.999999999999999,0.,0.));
#1116=DIRECTION('',(0.,0.,-1.));
#1117=DIRECTION('',(-1.,0.,0.));
#1118=DIRECTION('',(0.,0.,1.));
#1119=DIRECTION('',(1.,0.,0.));
#1120=DIRECTION('',(0.,0.,-1.));
#1121=DIRECTION('',(0.,0.,1.));
#1122=DIRECTION('',(1.,0.,0.));
#1123=DIRECTION('',(0.,0.,-1.));
#1124=DIRECTION('',(-1.,0.,0.));
#1125=DIRECTION('',(0.,0.,1.));
#1126=DIRECTION('',(1.,0.,0.));
#1127=DIRECTION('',(0.,0.,-1.));
#1128=DIRECTION('',(0.,0.,1.));
#1129=DIRECTION('',(1.,0.,0.));
#1130=DIRECTION('',(0.,0.,-1.));
#1131=DIRECTION('',(-1.,0.,0.));
#1132=DIRECTION('',(0.,0.,1.));
#1133=DIRECTION('',(1.,0.,0.));
#1134=DIRECTION('',(0.,0.,-1.));
#1135=DIRECTION('',(0.,0.,1.));
#1136=DIRECTION('',(1.,0.,0.));
#1137=DIRECTION('',(0.,0.,-1.));
#1138=DIRECTION('',(-1.,0.,0.));
#1139=DIRECTION('',(0.,0.,1.));
#1140=DIRECTION('',(1.,0.,0.));
#1141=DIRECTION('',(0.,0.,-1.));
#1142=DIRECTION('',(0.,0.,1.));
#1143=DIRECTION('',(1.,0.,0.));
#1144=DIRECTION('',(0.,0.,-1.));
#1145=DIRECTION('',(-1.,0.,0.));
#1146=DIRECTION('',(0.,0.,1.));
#1147=DIRECTION('',(1.,0.,0.));
#1148=DIRECTION('',(0.,0.,-1.));
#1149=DIRECTION('',(0.,0.,1.));
#1150=DIRECTION('',(1.,0.,0.));
#1151=DIRECTION('',(0.,0.,-1.));
#1152=DIRECTION('',(-1.,0.,0.));
#1153=DIRECTION('',(0.,0.,1.));
#1154=DIRECTION('',(1.,0.,0.));
#1155=DIRECTION('',(0.,0.,-1.));
#1156=DIRECTION('',(0.,0.,1.));
#1157=DIRECTION('',(1.,0.,0.));
#1158=DIRECTION('',(0.,0.,-1.));
#1159=DIRECTION('',(-1.,0.,0.));
#1160=DIRECTION('',(0.,0.,1.));
#1161=DIRECTION('',(1.,0.,0.));
#1162=DIRECTION('',(0.,0.,-1.));
#1163=DIRECTION('',(0.,0.,1.));
#1164=DIRECTION('',(1.,0.,0.));
#1165=DIRECTION('',(0.,0.,-1.));
#1166=DIRECTION('',(-1.,0.,0.));
#1167=DIRECTION('',(0.,0.,1.));
#1168=DIRECTION('',(1.,0.,0.));
#1169=DIRECTION('',(0.,0.,-1.));
#1170=DIRECTION('',(0.,0.,1.));
#1171=DIRECTION('',(1.,0.,0.));
#1172=DIRECTION('',(0.,0.,-1.));
#1173=DIRECTION('',(-0.999999999999999,0.,0.));
#1174=DIRECTION('',(0.,0.,1.));
#1175=DIRECTION('',(1.,0.,0.));
#1176=DIRECTION('',(0.,0.,-1.));
#1177=DIRECTION('',(0.,0.,1.));
#1178=DIRECTION('',(1.,0.,0.));
#1179=DIRECTION('',(0.,0.,-1.));
#1180=DIRECTION('',(-1.,0.,0.));
#1181=DIRECTION('',(0.,0.,1.));
#1182=DIRECTION('',(0.999999999999999,0.,0.));
#1183=DIRECTION('',(0.,0.,-1.));
#1184=DIRECTION('',(0.,0.,1.));
#1185=DIRECTION('',(0.999999999999999,0.,0.));
#1186=DIRECTION('',(0.,0.,-1.));
#1187=DIRECTION('',(-0.999999999999999,0.,0.));
#1188=DIRECTION('',(0.,0.,1.));
#1189=DIRECTION('',(0.999999999999999,0.,0.));
#1190=DIRECTION('',(0.,0.,-1.));
#1191=DIRECTION('',(0.,0.,1.));
#1192=DIRECTION('',(0.999999999999999,0.,0.));
#1193=DIRECTION('',(0.,0.,-1.));
#1194=DIRECTION('',(-0.999999999999999,0.,0.));
#1195=DIRECTION('',(0.,0.,1.));
#1196=DIRECTION('',(1.,0.,0.));
#1197=DIRECTION('',(0.,0.,-1.));
#1198=DIRECTION('',(0.,0.,1.));
#1199=DIRECTION('',(1.,0.,0.));
#1200=DIRECTION('',(0.,0.,-1.));
#1201=DIRECTION('',(-1.,0.,0.));
#1202=DIRECTION('',(0.,0.,1.));
#1203=DIRECTION('',(0.999999999999999,0.,0.));
#1204=DIRECTION('',(0.,0.,-1.));
#1205=DIRECTION('',(0.,0.,1.));
#1206=DIRECTION('',(0.999999999999999,0.,0.));
#1207=DIRECTION('',(0.,0.,-1.));
#1208=DIRECTION('',(-0.999999999999999,0.,0.));
#1209=DIRECTION('',(0.,0.,1.));
#1210=DIRECTION('',(1.,0.,0.));
#1211=DIRECTION('',(0.,0.,-1.));
#1212=DIRECTION('',(0.,0.,1.));
#1213=DIRECTION('',(1.,0.,0.));
#1214=DIRECTION('',(0.,0.,-1.));
#1215=DIRECTION('',(-1.,0.,0.));
#1216=DIRECTION('',(0.,0.,1.));
#1217=DIRECTION('',(1.,0.,0.));
#1218=DIRECTION('',(0.,0.,-1.));
#1219=DIRECTION('',(0.,0.,1.));
#1220=DIRECTION('',(1.,0.,0.));
#1221=DIRECTION('',(0.,0.,-1.));
#1222=DIRECTION('',(-1.,0.,0.));
#1223=DIRECTION('',(0.,0.,1.));
#1224=DIRECTION('',(0.999999999999999,0.,0.));
#1225=DIRECTION('',(0.,0.,-1.));
#1226=DIRECTION('',(0.,0.,1.));
#1227=DIRECTION('',(0.999999999999999,0.,0.));
#1228=DIRECTION('',(0.,0.,-1.));
#1229=DIRECTION('',(-0.999999999999999,0.,0.));
#1230=DIRECTION('',(0.,0.,1.));
#1231=DIRECTION('',(1.,0.,0.));
#1232=DIRECTION('',(0.,0.,1.));
#1233=DIRECTION('',(1.,0.,0.));
#1234=DIRECTION('',(0.,0.,-1.));
#1235=DIRECTION('',(-1.,0.,0.));
#1236=DIRECTION('',(0.,0.,1.));
#1237=DIRECTION('',(1.,0.,0.));
#1238=DIRECTION('',(0.,0.,1.));
#1239=DIRECTION('',(1.,0.,0.));
#1240=DIRECTION('',(0.,0.,-1.));
#1241=DIRECTION('',(-1.,0.,0.));
#1242=DIRECTION('',(0.,0.,-1.));
#1243=DIRECTION('',(0.,0.,1.));
#1244=DIRECTION('',(1.,0.,0.));
#1245=CARTESIAN_POINT('',(0.,0.,0.));
#1246=CARTESIAN_POINT('',(-20.,-16.,0.));
#1247=CARTESIAN_POINT('',(-20.,-14.,0.));
#1248=CARTESIAN_POINT('',(-20.,-18.,0.));
#1249=CARTESIAN_POINT('',(-20.,-18.,2.));
#1250=CARTESIAN_POINT('',(-20.,-18.,2.));
#1251=CARTESIAN_POINT('',(-20.,-16.,2.));
#1252=CARTESIAN_POINT('',(-20.,-14.,2.));
#1253=CARTESIAN_POINT('',(-20.,-14.,2.));
#1254=CARTESIAN_POINT('',(-20.,-16.,2.));
#1255=CARTESIAN_POINT('',(-20.,-20.,0.));
#1256=CARTESIAN_POINT('',(-18.,-20.,0.));
#1257=CARTESIAN_POINT('',(-18.,-20.,2.));
#1258=CARTESIAN_POINT('',(-18.,-20.,2.));
#1259=CARTESIAN_POINT('',(-20.,-20.,2.));
#1260=CARTESIAN_POINT('',(-20.,-20.,2.));
#1261=CARTESIAN_POINT('',(-16.,-20.,0.));
#1262=CARTESIAN_POINT('',(-14.,-20.,0.));
#1263=CARTESIAN_POINT('',(-14.,-20.,2.));
#1264=CARTESIAN_POINT('',(-14.,-20.,2.));
#1265=CARTESIAN_POINT('',(-16.,-20.,2.));
#1266=CARTESIAN_POINT('',(-16.,-20.,2.));
#1267=CARTESIAN_POINT('',(-12.,-20.,0.));
#1268=CARTESIAN_POINT('',(-10.,-20.,0.));
#1269=CARTESIAN_POINT('',(-10.,-20.,2.));
#1270=CARTESIAN_POINT('',(-10.,-20.,2.));
#1271=CARTESIAN_POINT('',(-12.,-20.,2.));
#1272=CARTESIAN_POINT('',(-12.,-20.,2.));
#1273=CARTESIAN_POINT('',(-8.00000000000002,-20.,0.));
#1274=CARTESIAN_POINT('',(-6.00000000000002,-20.,0.));
#1275=CARTESIAN_POINT('',(-6.00000000000002,-20.,2.));
#1276=CARTESIAN_POINT('',(-6.00000000000002,-20.,2.));
#1277=CARTESIAN_POINT('',(-8.00000000000002,-20.,2.));
#1278=CARTESIAN_POINT('',(-8.00000000000002,-20.,2.));
#1279=CARTESIAN_POINT('',(-4.00000000000002,-20.,0.));
#1280=CARTESIAN_POINT('',(-2.00000000000002,-20.,0.));
#1281=CARTESIAN_POINT('',(-2.00000000000002,-20.,2.));
#1282=CARTESIAN_POINT('',(-2.00000000000002,-20.,2.));
#1283=CARTESIAN_POINT('',(-4.00000000000002,-20.,2.));
#1284=CARTESIAN_POINT('',(-4.00000000000002,-20.,2.));
#1285=CARTESIAN_POINT('',(-2.08166817117217E-14,-20.,0.));
#1286=CARTESIAN_POINT('',(1.99999999999998,-20.,0.));
#1287=CARTESIAN_POINT('',(1.99999999999998,-20.,2.));
#1288=CARTESIAN_POINT('',(1.99999999999998,-20.,2.));
#1289=CARTESIAN_POINT('',(-2.08166817117217E-14,-20.,2.));
#1290=CARTESIAN_POINT('',(-2.08166817117217E-14,-20.,2.));
#1291=CARTESIAN_POINT('',(3.99999999999998,-20.,0.));
#1292=CARTESIAN_POINT('',(5.99999999999998,-20.,0.));
#1293=CARTESIAN_POINT('',(5.99999999999998,-20.,2.));
#1294=CARTESIAN_POINT('',(5.99999999999998,-20.,2.));
#1295=CARTESIAN_POINT('',(3.99999999999998,-20.,2.));
#1296=CARTESIAN_POINT('',(3.99999999999998,-20.,2.));
#1297=CARTESIAN_POINT('',(7.99999999999998,-20.,0.));
#1298=CARTESIAN_POINT('',(9.99999999999998,-20.,0.));
#1299=CARTESIAN_POINT('',(9.99999999999998,-20.,2.));
#1300=CARTESIAN_POINT('',(9.99999999999998,-20.,2.));
#1301=CARTESIAN_POINT('',(7.99999999999998,-20.,2.));
#1302=CARTESIAN_POINT('',(7.99999999999998,-20.,2.));
#1303=CARTESIAN_POINT('',(12.,-20.,0.));
#1304=CARTESIAN_POINT('',(14.,-20.,0.));
#1305=CARTESIAN_POINT('',(14.,-20.,2.));
#1306=CARTESIAN_POINT('',(14.,-20.,2.));
#1307=CARTESIAN_POINT('',(12.,-20.,2.));
#1308=CARTESIAN_POINT('',(12.,-20.,2.));
#1309=CARTESIAN_POINT('',(16.,-20.,0.));
#1310=CARTESIAN_POINT('',(18.,-20.,0.));
#1311=CARTESIAN_POINT('',(18.,-20.,2.));
#1312=CARTESIAN_POINT('',(18.,-20.,2.));
#1313=CARTESIAN_POINT('',(16.,-20.,2.));
#1314=CARTESIAN_POINT('',(16.,-20.,2.));
#1315=CARTESIAN_POINT('',(20.,-20.,0.));
#1316=CARTESIAN_POINT('',(20.,-18.,0.));
#1317=CARTESIAN_POINT('',(20.,-18.,2.));
#1318=CARTESIAN_POINT('',(20.,-18.,2.));
#1319=CARTESIAN_POINT('',(20.,-20.,2.));
#1320=CARTESIAN_POINT('',(20.,-20.,2.));
#1321=CARTESIAN_POINT('',(20.,-16.,0.));
#1322=CARTESIAN_POINT('',(20.,-14.,0.));
#1323=CARTESIAN_POINT('',(20.,-14.,2.));
#1324=CARTESIAN_POINT('',(20.,-14.,2.));
#1325=CARTESIAN_POINT('',(20.,-16.,2.));
#1326=CARTESIAN_POINT('',(20.,-16.,2.));
#1327=CARTESIAN_POINT('',(20.,-12.,0.));
#1328=CARTESIAN_POINT('',(20.,-9.99999999999999,0.));
#1329=CARTESIAN_POINT('',(20.,-9.99999999999999,2.));
#1330=CARTESIAN_POINT('',(20.,-9.99999999999999,2.));
#1331=CARTESIAN_POINT('',(20.,-12.,2.));
#1332=CARTESIAN_POINT('',(20.,-12.,2.));
#1333=CARTESIAN_POINT('',(20.,-8.,0.));
#1334=CARTESIAN_POINT('',(20.,-6.,0.));
#1335=CARTESIAN_POINT('',(20.,-6.,2.));
#1336=CARTESIAN_POINT('',(20.,-6.,2.));
#1337=CARTESIAN_POINT('',(20.,-8.,2.));
#1338=CARTESIAN_POINT('',(20.,-8.,2.));
#1339=CARTESIAN_POINT('',(20.,-4.,0.));
#1340=CARTESIAN_POINT('',(20.,-2.,0.));
#1341=CARTESIAN_POINT('',(20.,-2.,2.));
#1342=CARTESIAN_POINT('',(20.,-2.,2.));
#1343=CARTESIAN_POINT('',(20.,-4.,2.));
#1344=CARTESIAN_POINT('',(20.,-4.,2.));
#1345=CARTESIAN_POINT('',(20.,3.46944695195361E-15,0.));
#1346=CARTESIAN_POINT('',(20.,2.,0.));
#1347=CARTESIAN_POINT('',(20.,2.,2.));
#1348=CARTESIAN_POINT('',(20.,2.,2.));
#1349=CARTESIAN_POINT('',(20.,3.46944695195361E-15,2.));
#1350=CARTESIAN_POINT('',(20.,3.46944695195361E-15,2.));
#1351=CARTESIAN_POINT('',(20.,4.,0.));
#1352=CARTESIAN_POINT('',(20.,6.,0.));
#1353=CARTESIAN_POINT('',(20.,6.,2.));
#1354=CARTESIAN_POINT('',(20.,6.,2.));
#1355=CARTESIAN_POINT('',(20.,4.,2.));
#1356=CARTESIAN_POINT('',(20.,4.,2.));
#1357=CARTESIAN_POINT('',(20.,8.,0.));
#1358=CARTESIAN_POINT('',(20.,10.,0.));
#1359=CARTESIAN_POINT('',(20.,10.,2.));
#1360=CARTESIAN_POINT('',(20.,10.,2.));
#1361=CARTESIAN_POINT('',(20.,8.,2.));
#1362=CARTESIAN_POINT('',(20.,8.,2.));
#1363=CARTESIAN_POINT('',(20.,12.,0.));
#1364=CARTESIAN_POINT('',(20.,14.,0.));
#1365=CARTESIAN_POINT('',(20.,14.,2.));
#1366=CARTESIAN_POINT('',(20.,14.,2.));
#1367=CARTESIAN_POINT('',(20.,12.,2.));
#1368=CARTESIAN_POINT('',(20.,12.,2.));
#1369=CARTESIAN_POINT('',(20.,16.,0.));
#1370=CARTESIAN_POINT('',(20.,18.,0.));
#1371=CARTESIAN_POINT('',(20.,18.,2.));
#1372=CARTESIAN_POINT('',(20.,18.,2.));
#1373=CARTESIAN_POINT('',(20.,16.,2.));
#1374=CARTESIAN_POINT('',(20.,16.,2.));
#1375=CARTESIAN_POINT('',(20.,20.,0.));
#1376=CARTESIAN_POINT('',(18.,20.,0.));
#1377=CARTESIAN_POINT('',(18.,20.,2.));
#1378=CARTESIAN_POINT('',(18.,20.,2.));
#1379=CARTESIAN_POINT('',(20.,20.,2.));
#1380=CARTESIAN_POINT('',(20.,20.,2.));
#1381=CARTESIAN_POINT('',(16.,20.,0.));
#1382=CARTESIAN_POINT('',(14.,20.,0.));
#1383=CARTESIAN_POINT('',(14.,20.,2.));
#1384=CARTESIAN_POINT('',(14.,20.,2.));
#1385=CARTESIAN_POINT('',(16.,20.,2.));
#1386=CARTESIAN_POINT('',(16.,20.,2.));
#1387=CARTESIAN_POINT('',(12.,20.,0.));
#1388=CARTESIAN_POINT('',(10.,20.,0.));
#1389=CARTESIAN_POINT('',(10.,20.,2.));
#1390=CARTESIAN_POINT('',(10.,20.,2.));
#1391=CARTESIAN_POINT('',(12.,20.,2.));
#1392=CARTESIAN_POINT('',(12.,20.,2.));
#1393=CARTESIAN_POINT('',(8.00000000000002,20.,0.));
#1394=CARTESIAN_POINT('',(6.00000000000002,20.,0.));
#1395=CARTESIAN_POINT('',(6.00000000000002,20.,2.));
#1396=CARTESIAN_POINT('',(6.00000000000002,20.,2.));
#1397=CARTESIAN_POINT('',(8.00000000000002,20.,2.));
#1398=CARTESIAN_POINT('',(8.00000000000002,20.,2.));
#1399=CARTESIAN_POINT('',(4.00000000000002,20.,0.));
#1400=CARTESIAN_POINT('',(2.00000000000003,20.,0.));
#1401=CARTESIAN_POINT('',(2.00000000000003,20.,2.));
#1402=CARTESIAN_POINT('',(2.00000000000003,20.,2.));
#1403=CARTESIAN_POINT('',(4.00000000000002,20.,2.));
#1404=CARTESIAN_POINT('',(4.00000000000002,20.,2.));
#1405=CARTESIAN_POINT('',(2.48689957516035E-14,20.,0.));
#1406=CARTESIAN_POINT('',(-1.99999999999998,20.,0.));
#1407=CARTESIAN_POINT('',(-1.99999999999998,20.,2.));
#1408=CARTESIAN_POINT('',(-1.99999999999998,20.,2.));
#1409=CARTESIAN_POINT('',(2.48689957516035E-14,20.,2.));
#1410=CARTESIAN_POINT('',(2.48689957516035E-14,20.,2.));
#1411=CARTESIAN_POINT('',(-3.99999999999998,20.,0.));
#1412=CARTESIAN_POINT('',(-5.99999999999998,20.,0.));
#1413=CARTESIAN_POINT('',(-5.99999999999998,20.,2.));
#1414=CARTESIAN_POINT('',(-5.99999999999998,20.,2.));
#1415=CARTESIAN_POINT('',(-3.99999999999998,20.,2.));
#1416=CARTESIAN_POINT('',(-3.99999999999998,20.,2.));
#1417=CARTESIAN_POINT('',(-7.99999999999998,20.,0.));
#1418=CARTESIAN_POINT('',(-9.99999999999998,20.,0.));
#1419=CARTESIAN_POINT('',(-9.99999999999998,20.,2.));
#1420=CARTESIAN_POINT('',(-9.99999999999998,20.,2.));
#1421=CARTESIAN_POINT('',(-7.99999999999998,20.,2.));
#1422=CARTESIAN_POINT('',(-7.99999999999998,20.,2.));
#1423=CARTESIAN_POINT('',(-12.,20.,0.));
#1424=CARTESIAN_POINT('',(-14.,20.,0.));
#1425=CARTESIAN_POINT('',(-14.,20.,2.));
#1426=CARTESIAN_POINT('',(-14.,20.,2.));
#1427=CARTESIAN_POINT('',(-12.,20.,2.));
#1428=CARTESIAN_POINT('',(-12.,20.,2.));
#1429=CARTESIAN_POINT('',(-16.,20.,0.));
#1430=CARTESIAN_POINT('',(-18.,20.,0.));
#1431=CARTESIAN_POINT('',(-18.,20.,2.));
#1432=CARTESIAN_POINT('',(-18.,20.,2.));
#1433=CARTESIAN_POINT('',(-16.,20.,2.));
#1434=CARTESIAN_POINT('',(-16.,20.,2.));
#1435=CARTESIAN_POINT('',(-20.,20.,0.));
#1436=CARTESIAN_POINT('',(-20.,18.,0.));
#1437=CARTESIAN_POINT('',(-20.,18.,2.));
#1438=CARTESIAN_POINT('',(-20.,18.,2.));
#1439=CARTESIAN_POINT('',(-20.,20.,2.));
#1440=CARTESIAN_POINT('',(-20.,20.,2.));
#1441=CARTESIAN_POINT('',(-20.,16.,0.));
#1442=CARTESIAN_POINT('',(-20.,14.,0.));
#1443=CARTESIAN_POINT('',(-20.,14.,2.));
#1444=CARTESIAN_POINT('',(-20.,14.,2.));
#1445=CARTESIAN_POINT('',(-20.,16.,2.));
#1446=CARTESIAN_POINT('',(-20.,16.,2.));
#1447=CARTESIAN_POINT('',(-20.,12.,0.));
#1448=CARTESIAN_POINT('',(-20.,10.,0.));
#1449=CARTESIAN_POINT('',(-20.,10.,2.));
#1450=CARTESIAN_POINT('',(-20.,10.,2.));
#1451=CARTESIAN_POINT('',(-20.,12.,2.));
#1452=CARTESIAN_POINT('',(-20.,12.,2.));
#1453=CARTESIAN_POINT('',(-20.,8.,0.));
#1454=CARTESIAN_POINT('',(-20.,6.,0.));
#1455=CARTESIAN_POINT('',(-20.,6.,2.));
#1456=CARTESIAN_POINT('',(-20.,6.,2.));
#1457=CARTESIAN_POINT('',(-20.,8.,2.));
#1458=CARTESIAN_POINT('',(-20.,8.,2.));
#1459=CARTESIAN_POINT('',(-20.,4.,0.));
#1460=CARTESIAN_POINT('',(-20.,2.,0.));
#1461=CARTESIAN_POINT('',(-20.,2.,2.));
#1462=CARTESIAN_POINT('',(-20.,2.,2.));
#1463=CARTESIAN_POINT('',(-20.,4.,2.));
#1464=CARTESIAN_POINT('',(-20.,4.,2.));
#1465=CARTESIAN_POINT('',(-20.,0.,0.));
#1466=CARTESIAN_POINT('',(-20.,-2.,0.));
#1467=CARTESIAN_POINT('',(-20.,-2.,2.));
#1468=CARTESIAN_POINT('',(-20.,-2.,2.));
#1469=CARTESIAN_POINT('',(-20.,0.,2.));
#1470=CARTESIAN_POINT('',(-20.,0.,2.));
#1471=CARTESIAN_POINT('',(-20.,-4.,0.));
#1472=CARTESIAN_POINT('',(-20.,-6.,0.));
#1473=CARTESIAN_POINT('',(-20.,-6.,2.));
#1474=CARTESIAN_POINT('',(-20.,-6.,2.));
#1475=CARTESIAN_POINT('',(-20.,-4.,2.));
#1476=CARTESIAN_POINT('',(-20.,-4.,2.));
#1477=CARTESIAN_POINT('',(-20.,-8.,0.));
#1478=CARTESIAN_POINT('',(-20.,-10.,0.));
#1479=CARTESIAN_POINT('',(-20.,-10.,2.));
#1480=CARTESIAN_POINT('',(-20.,-10.,2.));
#1481=CARTESIAN_POINT('',(-20.,-8.,2.));
#1482=CARTESIAN_POINT('',(-20.,-8.,2.));
#1483=CARTESIAN_POINT('',(-20.,-12.,0.));
#1484=CARTESIAN_POINT('',(-20.,-12.,2.));
#1485=CARTESIAN_POINT('',(-20.,-12.,2.));
#1486=CARTESIAN_POINT('',(-20.,-18.,2.));
#1487=CARTESIAN_POINT('',(-20.,-18.,0.));
#1488=CARTESIAN_POINT('',(0.,0.,9.45580661294587E-16));
#1489=CARTESIAN_POINT('',(-13.7771016406737,0.,9.45580661294587E-16));
#1490=CARTESIAN_POINT('',(0.,8.4360417128894E-16,7.72125205367733));
#1491=CARTESIAN_POINT('',(0.,8.4360417128894E-16,7.72125205367733));
#1492=CARTESIAN_POINT('',(0.,-8.07043929091403,7.72125205367733));
#1493=CARTESIAN_POINT('',(0.,-13.7771016406737,4.52300473454307));
#1494=CARTESIAN_POINT('',(0.,-13.7771016406737,9.45580661294587E-16));
#1495=CARTESIAN_POINT('',(0.,0.,0.));
#1496=CARTESIAN_POINT('',(0.,-2.,0.));
#1497=MECHANICAL_DESIGN_GEOMETRIC_PRESENTATION_REPRESENTATION('',(#30,#31),
#1498);
#1498=(
GEOMETRIC_REPRESENTATION_CONTEXT(3)
GLOBAL_UNCERTAINTY_ASSIGNED_CONTEXT((#1499))
GLOBAL_UNIT_ASSIGNED_CONTEXT((#1505,#1501,#1500))
REPRESENTATION_CONTEXT('ravioli','TOP_LEVEL_ASSEMBLY_PART')
);
#1499=UNCERTAINTY_MEASURE_WITH_UNIT(LENGTH_MEASURE(0.0508),#1505,
'DISTANCE_ACCURACY_VALUE','Maximum Tolerance applied to model');
#1500=(
NAMED_UNIT(*)
SI_UNIT($,.STERADIAN.)
SOLID_ANGLE_UNIT()
);
#1501=(
CONVERSION_BASED_UNIT('DEGREE',#1503)
NAMED_UNIT(#1502)
PLANE_ANGLE_UNIT()
);
#1502=DIMENSIONAL_EXPONENTS(0.,0.,0.,0.,0.,0.,0.);
#1503=PLANE_ANGLE_MEASURE_WITH_UNIT(PLANE_ANGLE_MEASURE(0.0174532925),#1504);
#1504=(
NAMED_UNIT(*)
PLANE_ANGLE_UNIT()
SI_UNIT($,.RADIAN.)
);
#1505=(
LENGTH_UNIT()
NAMED_UNIT(*)
SI_UNIT(.MILLI.,.METRE.)
);
ENDSEC;
END-ISO-10303-21;
